<svg>
  <symbol
    id="home"
    xmlns="http://www.w3.org/2000/svg"
    xmlns:xlink="http://www.w3.org/1999/xlink"
    fill="none"
    stroke="currentColor"
    viewBox="0 0 24 24"
  >
    <path
      stroke-linecap="round"
      stroke-linejoin="round"
      stroke-width="2"
      d="M3 12l2-2m0 0l7-7 7 7M5 10v10a1 1 0 001 1h3m10-11l2 2m-2-2v10a1 1 0 01-1 1h-3m-6 0a1 1 0 001-1v-4a1 1 0 011-1h2a1 1 0 011 1v4a1 1 0 001 1m-6 0h6"
    />
  </symbol>
  <symbol
    id="time"
    fill="none"
    stroke="currentColor"
    stroke-width="2"
    viewBox="0 0 24 24"
    xmlns="http://www.w3.org/2000/svg"
    aria-hidden="true"
    xmlns:xlink="http://www.w3.org/1999/xlink"
  >
    <path
      stroke-linecap="round"
      stroke-linejoin="round"
      d="M12 6v6h4.5m4.5 0a9 9 0 11-18 0 9 9 0 0118 0z"
    ></path>
  </symbol>
  <symbol
    id="calculator"
    fill="none"
    stroke="currentColor"
    stroke-width="2"
    viewBox="0 0 24 24"
    aria-hidden="true"
    xmlns="http://www.w3.org/2000/svg"
    xmlns:xlink="http://www.w3.org/1999/xlink"
  >
    <path
      stroke-linecap="round"
      stroke-linejoin="round"
      d="M6.75 3v2.25M17.25 3v2.25M3 18.75V7.5a2.25 2.25 0 012.25-2.25h13.5A2.25 2.25 0 0121 7.5v11.25m-18 0A2.25 2.25 0 005.25 21h13.5A2.25 2.25 0 0021 18.75m-18 0v-7.5A2.25 2.25 0 015.25 9h13.5A2.25 2.25 0 0121 11.25v7.5m-9-6h.008v.008H12v-.008zM12 15h.008v.008H12V15zm0 2.25h.008v.008H12v-.008zM9.75 15h.008v.008H9.75V15zm0 2.25h.008v.008H9.75v-.008zM7.5 15h.008v.008H7.5V15zm0 2.25h.008v.008H7.5v-.008zm6.75-4.5h.008v.008h-.008v-.008zm0 2.25h.008v.008h-.008V15zm0 2.25h.008v.008h-.008v-.008zm2.25-4.5h.008v.008H16.5v-.008zm0 2.25h.008v.008H16.5V15z"
    ></path>
  </symbol>
  <symbol
    id="out"
    fill="none"
    stroke="currentColor"
    stroke-width="2"
    viewBox="0 0 24 24"
    xmlns="http://www.w3.org/2000/svg"
    aria-hidden="true"
    xmlns:xlink="http://www.w3.org/1999/xlink"
  >
    <path
      stroke-linecap="round"
      stroke-linejoin="round"
      d="M15.75 9V5.25A2.25 2.25 0 0013.5 3h-6a2.25 2.25 0 00-2.25 2.25v13.5A2.25 2.25 0 007.5 21h6a2.25 2.25 0 002.25-2.25V15m3 0l3-3m0 0l-3-3m3 3H9"
    ></path>
  </symbol>
  <symbol
    id="setting"
    fill="none"
    stroke="currentColor"
    stroke-width="2"
    viewBox="0 0 24 24"
    xmlns="http://www.w3.org/2000/svg"
    aria-hidden="true"
    xmlns:xlink="http://www.w3.org/1999/xlink"
  >
    <path
      stroke-linecap="round"
      stroke-linejoin="round"
      d="M9.594 3.94c.09-.542.56-.94 1.11-.94h2.593c.55 0 1.02.398 1.11.94l.213 1.281c.063.374.313.686.645.87.074.04.147.083.22.127.324.196.72.257 1.075.124l1.217-.456a1.125 1.125 0 011.37.49l1.296 2.247a1.125 1.125 0 01-.26 1.431l-1.003.827c-.293.24-.438.613-.431.992a6.759 6.759 0 010 .255c-.007.378.138.75.43.99l1.005.828c.424.35.534.954.26 1.43l-1.298 2.247a1.125 1.125 0 01-1.369.491l-1.217-.456c-.355-.133-.75-.072-1.076.124a6.57 6.57 0 01-.22.128c-.331.183-.581.495-.644.869l-.213 1.28c-.09.543-.56.941-1.11.941h-2.594c-.55 0-1.02-.398-1.11-.94l-.213-1.281c-.062-.374-.312-.686-.644-.87a6.52 6.52 0 01-.22-.127c-.325-.196-.72-.257-1.076-.124l-1.217.456a1.125 1.125 0 01-1.369-.49l-1.297-2.247a1.125 1.125 0 01.26-1.431l1.004-.827c.292-.24.437-.613.43-.992a6.932 6.932 0 010-.255c.007-.378-.138-.75-.43-.99l-1.004-.828a1.125 1.125 0 01-.26-1.43l1.297-2.247a1.125 1.125 0 011.37-.491l1.216.456c.356.133.751.072 1.076-.124.072-.044.146-.087.22-.128.332-.183.582-.495.644-.869l.214-1.281z"
    ></path>
    <path
      stroke-linecap="round"
      stroke-linejoin="round"
      d="M15 12a3 3 0 11-6 0 3 3 0 016 0z"
    ></path>
  </symbol>
  <symbol
    id="info"
    fill="none"
    viewBox="0 0 24 24"
    stroke="currentColor"
    xmlns="http://www.w3.org/2000/svg"
    xmlns:xlink="http://www.w3.org/1999/xlink"
  >
    <path
      stroke-linecap="round"
      stroke-linejoin="round"
      stroke-width="2"
      d="M13 16h-1v-4h-1m1-4h.01M21 12a9 9 0 11-18 0 9 9 0 0118 0z"
    />
  </symbol>
  <symbol
    id="signal"
    fill="none"
    viewBox="0 0 24 24"
    stroke="currentColor"
    xmlns="http://www.w3.org/2000/svg"
    xmlns:xlink="http://www.w3.org/1999/xlink"
  >
    <path
      stroke-linecap="round"
      stroke-linejoin="round"
      stroke-width="2"
      d="M9 19v-6a2 2 0 00-2-2H5a2 2 0 00-2 2v6a2 2 0 002 2h2a2 2 0 002-2zm0 0V9a2 2 0 012-2h2a2 2 0 012 2v10m-6 0a2 2 0 002 2h2a2 2 0 002-2m0 0V5a2 2 0 012-2h2a2 2 0 012 2v14a2 2 0 01-2 2h-2a2 2 0 01-2-2z"
    />
  </symbol>
  <symbol
    id="checked"
    fill="none"
    stroke="currentColor"
    stroke-width="2"
    viewBox="0 0 24 24"
    xmlns="http://www.w3.org/2000/svg"
    aria-hidden="true"
    xmlns:xlink="http://www.w3.org/1999/xlink"
  >
    <path
      stroke-linecap="round"
      stroke-linejoin="round"
      d="M9 12.75L11.25 15 15 9.75M21 12a9 9 0 11-18 0 9 9 0 0118 0z"
    ></path>
  </symbol>
  <symbol
    id="alert"
    fill="none"
    stroke="currentColor"
    stroke-width="2"
    viewBox="0 0 24 24"
    xmlns="http://www.w3.org/2000/svg"
    aria-hidden="true"
    xmlns:xlink="http://www.w3.org/1999/xlink"
  >
    <path
      stroke-linecap="round"
      stroke-linejoin="round"
      d="M14.857 17.082a23.848 23.848 0 005.454-1.31A8.967 8.967 0 0118 9.75v-.7V9A6 6 0 006 9v.75a8.967 8.967 0 01-2.312 6.022c1.733.64 3.56 1.085 5.455 1.31m5.714 0a24.255 24.255 0 01-5.714 0m5.714 0a3 3 0 11-5.714 0M3.124 7.5A8.969 8.969 0 015.292 3m13.416 0a8.969 8.969 0 012.168 4.5"
    ></path>
  </symbol>
  <symbol
    id="notice"
    viewBox="0 0 1024 1024"
    width="16"
    height="16"
    stroke="currentColor"
    stroke-width="2"
    xmlns="http://www.w3.org/2000/svg"
    xmlns:xlink="http://www.w3.org/1999/xlink"
  >
    <path
      stroke-linecap="round"
      stroke-width="2"
      stroke-linejoin="round"
      d="M521.4 222.5c-2.9 1-6.1 1.6-9.4 1.6s-6.5-0.6-9.4-1.6c6.2-0.5 12.5-0.5 18.8 0z" fill=""/>
    <path
      stroke-linecap="round"
      stroke-linejoin="round"
      stroke-width="2"
      d="M780.6 442.8L593.8 255.9c-10.5-10.5-22.4-18.5-35.2-24.1 7.8-10 12.4-22.5 12.4-36.1 0-32.5-26.4-58.9-58.9-58.9s-58.9 26.4-58.9 58.9c0 13.6 4.6 26.1 12.4 36.1-12.8 5.6-24.8 13.6-35.2 24.1l-187 186.9c-63.5 0.3-115 52.1-115 115.6v213.1c0 63.8 51.9 115.6 115.6 115.6h536c63.8 0 115.7-51.9 115.7-115.6V558.4c0-63.5-51.6-115.3-115.1-115.6zM512 167.4c15.6 0 28.4 12.7 28.4 28.4 0 12.4-7.9 22.9-19 26.8-2.9 1-6.1 1.6-9.4 1.6s-6.5-0.6-9.4-1.6c-11.1-3.9-19-14.4-19-26.8 0-15.7 12.7-28.4 28.4-28.4z m-60.2 110.1c13.6-13.6 30.6-21.6 48.3-24 7.9-1.1 15.9-1.1 23.8 0 17.7 2.5 34.7 10.5 48.3 24.1l165.2 165.2H286.6l165.2-165.3z m413.3 494c0 46.9-38.2 85.1-85.1 85.1H244c-46.9 0-85.1-38.2-85.1-85.1V558.4c0-46.9 38.2-85.1 85.1-85.1h536c46.9 0 85.1 38.2 85.1 85.1v213.1z" fill=""/>
    <path
      stroke-linecap="round"
      stroke-width="2"
      stroke-linejoin="round"
      d="M507.3 750.4c0 8.4-6.8 15.3-15.3 15.3H237.9c-8.4 0-15.3-6.8-15.3-15.3 0-8.4 6.8-15.3 15.3-15.3H492c8.5 0 15.3 6.9 15.3 15.3zM783.5 579.5c0 8.4-6.8 15.3-15.3 15.3H237.9c-8.4 0-15.3-6.8-15.3-15.3 0-8.4 6.8-15.3 15.3-15.3h530.4c8.4 0 15.2 6.9 15.2 15.3z" fill=""/>
  </symbol>
  <!-- <symbol
    id="admin"
    viewBox="0 0 1024 1024"
    width="16"
    height="16"
    stroke="currentColor"
    stroke-width="2"
    xmlns="http://www.w3.org/2000/svg"
    xmlns:xlink="http://www.w3.org/1999/xlink"
  >
  <path d="M537.216 1003.776h-427.52c-27.072 0-52.8-11.456-70.592-31.296a76.352 76.352 0 0 1-19.904-58.88l-0.192-60.16a32 32 0 0 1 64 0v63.872c-0.384 5.44 0.576 8.832 3.968 12.608a30.656 30.656 0 0 0 22.72 9.856h427.52a32 32 0 0 1 0 64z" />
    <path d="M50.752 934.144a32 32 0 0 1-32-32v-60.032a457.536 457.536 0 0 1 277.952-421.12 32.192 32.192 0 0 1 42.048 16.832 32.128 32.128 0 0 1-16.896 42.112 393.408 393.408 0 0 0-239.104 362.24v60.032a32 32 0 0 1-32 31.936z" />
    <path d="M460.736 514.496a247.36 247.36 0 0 1-247.104-247.104A247.424 247.424 0 0 1 460.736 20.224a247.424 247.424 0 0 1 247.168 247.168 247.36 247.36 0 0 1-247.168 247.104z m0-430.272a183.36 183.36 0 0 0-183.104 183.168 183.296 183.296 0 0 0 183.104 183.104 183.36 183.36 0 0 0 183.168-183.104 183.36 183.36 0 0 0-183.168-183.168zM778.56 829.376c-42.944 0-77.888-34.944-77.888-77.888s34.944-77.888 77.888-77.888 77.888 34.944 77.888 77.888-34.944 77.888-77.888 77.888z m0-110.976a33.216 33.216 0 1 0 0.064 66.368 33.216 33.216 0 0 0-0.064-66.368z"/>
    <path d="M834.56 960.384a22.4 22.4 0 0 1-22.144-19.2 35.2 35.2 0 0 0-34.56-30.208c-17.152 0-32 12.864-34.624 30.016a22.272 22.272 0 0 1-28.736 17.984 217.536 217.536 0 0 1-84.352-49.344 22.4 22.4 0 0 1 1.28-33.728 35.136 35.136 0 0 0 8.32-44.864 35.84 35.84 0 0 0-42.88-15.04 22.4 22.4 0 0 1-29.76-15.936c-3.712-16.448-5.632-32.768-5.632-48.64s1.92-32.192 5.632-48.64a22.144 22.144 0 0 1 11.2-14.72 22.528 22.528 0 0 1 18.496-1.216 34.944 34.944 0 1 0 34.56-59.968 22.336 22.336 0 0 1-8.192-16.64 21.248 21.248 0 0 1 6.976-16.96 217.472 217.472 0
    0 1 84.352-49.28 22.4 22.4 0 0 1 28.672 18.048 35.328 35.328 0 0 0 34.624 29.952 35.2 35.2 0 0 0 34.56-30.208 22.4 22.4 0 0 1 28.608-18.304 217.6 217.6 0 0 1 85.248 49.088 22.336 22.336 0 0 1-1.472 34.048 34.88 34.88 0 0 0-8.896 45.056 35.84 35.84 0 0 0 43.776 14.784 22.592 22.592 0 0 1 30.208 15.552 214.336 214.336 0 0 1 0 98.816 22.592 22.592 0 0 1-30.336 15.552 35.456 35.456 0 0 0-43.648 14.72 35.008 35.008 0 0 0 8.96 45.184 22.4 22.4 0 0 1 1.408 34.048 218.368 218.368 0 0 1-85.312 49.024 19.584 19.584 0 0 1-6.336 1.024z m-56.768-94.144c30.144
    0 57.024 17.216 70.592 42.752 10.624-4.736 20.864-10.624 30.528-17.536a79.232 79.232 0 0 1-1.728-82.56 81.024 81.024 0 0 1 72.832-39.744 164.16 164.16 0 0 0 0-35.264 81.28 81.28 0 0 1-72.768-39.68 80.128 80.128 0 0 1 1.792-82.496 166.336 166.336 0 0 0-30.656-17.664c-13.504 25.6-40.448 42.816-70.592 42.816-29.824 0-56.64-17.024-70.336-42.304a179.072 179.072 0 0 0-30.336 17.792c15.104 24.384 16.256 55.68 1.28 81.792-14.528 25.216-43.008 42.432-71.296 39.872a147.776 147.776 0 0 0 0 35.008 83.84 83.84 0 0 1 71.296 39.744c15.04 26.24 13.888 57.536-1.216
    81.92 9.472 6.976 19.648 12.928 30.336 17.792 13.696-25.216 40.512-42.24 70.272-42.24z" />
</symbol> -->
<symbol id="admin" fill="none" stroke="currentColor" stroke-width="2" viewBox="0 0 24 24" xmlns="http://www.w3.org/2000/svg" aria-hidden="true">
  <path stroke-linecap="round" stroke-linejoin="round" d="M15 9h3.75M15 12h3.75M15 15h3.75M4.5 19.5h15a2.25 2.25 0 002.25-2.25V6.75A2.25 2.25 0 0019.5 4.5h-15a2.25 2.25 0 00-2.25 2.25v10.5A2.25 2.25 0 004.5 19.5zm6-10.125a1.875 1.875 0 11-3.75 0 1.875 1.875 0 013.75 0zm1.294 6.336a6.721 6.721 0 01-3.17.789 6.721 6.721 0 01-3.168-.789 3.376 3.376 0 016.338 0z"></path>
</symbol>
</svg>
